<?xml version="1.0" encoding="iso-8859-1"?>
<!-- Generator: Adobe Illustrator 16.0.0, SVG Export Plug-In . SVG Version: 6.00 Build 0)  -->
<!DOCTYPE svg PUBLIC "-//W3C//DTD SVG 1.1//EN" "http://www.w3.org/Graphics/SVG/1.1/DTD/svg11.dtd">
<svg version="1.1" id="Capa_1" xmlns="http://www.w3.org/2000/svg" xmlns:xlink="http://www.w3.org/1999/xlink" x="0px" y="0px"
	 width="516.375px" height="516.375px" viewBox="0 0 516.375 516.375" style="enable-background:new 0 0 516.375 516.375;"
	 xml:space="preserve">
<g>
	<g id="Layer_2_32_">
		<rect x="133.875" y="430.312" width="248.625" height="19.125"/>
		<rect x="133.875" y="172.125" width="248.625" height="172.125"/>
		<polygon points="173.674,102.137 203.126,140.387 232.598,102.137 262.079,140.387 291.561,102.137 321.013,140.387 
			350.494,102.137 379.985,140.387 382.5,137.126 382.5,95.625 133.875,95.625 133.875,126.971 144.193,140.387 		"/>
		<polygon points="382.5,152.79 379.985,156.05 350.494,117.8 321.013,156.05 291.561,117.8 262.079,156.05 232.598,117.8 
			203.126,156.05 173.674,117.8 144.193,156.05 133.875,142.653 133.875,162.562 382.5,162.562 		"/>
		<polygon points="382.5,410.978 379.985,414.238 350.494,375.988 321.013,414.238 291.561,375.988 262.079,414.238 
			232.598,375.988 203.126,414.238 173.674,375.988 144.193,414.238 133.875,400.841 133.875,420.75 382.5,420.75 		"/>
		<polygon points="173.674,360.324 203.126,398.574 232.598,360.324 262.079,398.574 291.561,360.324 321.013,398.574 
			350.494,360.324 379.985,398.574 382.5,395.313 382.5,353.812 133.875,353.812 133.875,385.158 144.193,398.574 		"/>
		<rect x="133.875" y="66.938" width="248.625" height="19.125"/>
		<rect x="133.875" width="19.125" height="57.375"/>
		<rect x="162.562" width="19.125" height="57.375"/>
		<rect x="191.25" width="19.125" height="57.375"/>
		<rect x="219.938" width="19.125" height="57.375"/>
		<rect x="248.625" width="19.125" height="57.375"/>
		<rect x="277.312" width="19.125" height="57.375"/>
		<rect x="306" width="19.125" height="57.375"/>
		<rect x="334.688" width="19.125" height="57.375"/>
		<rect x="363.375" width="19.125" height="57.375"/>
		<rect x="133.875" y="459" width="19.125" height="57.375"/>
		<rect x="162.562" y="459" width="19.125" height="57.375"/>
		<rect x="191.25" y="459" width="19.125" height="57.375"/>
		<rect x="219.938" y="459" width="19.125" height="57.375"/>
		<rect x="248.625" y="459" width="19.125" height="57.375"/>
		<rect x="277.312" y="459" width="19.125" height="57.375"/>
		<rect x="306" y="459" width="19.125" height="57.375"/>
		<rect x="334.688" y="459" width="19.125" height="57.375"/>
		<rect x="363.375" y="459" width="19.125" height="57.375"/>
	</g>
</g>
<g>
</g>
<g>
</g>
<g>
</g>
<g>
</g>
<g>
</g>
<g>
</g>
<g>
</g>
<g>
</g>
<g>
</g>
<g>
</g>
<g>
</g>
<g>
</g>
<g>
</g>
<g>
</g>
<g>
</g>
</svg>
